<?xml version="1.0" standalone="no"?>
<!DOCTYPE svg PUBLIC "-//W3C//DTD SVG 20010904//EN"
 "http://www.w3.org/TR/2001/REC-SVG-20010904/DTD/svg10.dtd">
<svg version="1.0" xmlns="http://www.w3.org/2000/svg"
 width="505.000000pt" height="505.000000pt" viewBox="0 0 505.000000 505.000000"
 preserveAspectRatio="xMidYMid meet">

<g transform="translate(0.000000,505.000000) scale(0.100000,-0.100000)"
fill="#000000" stroke="none">
<path d="M2247 4851 c-54 -32 -476 -276 -937 -542 l-840 -484 -2 -1065 c-2
-699 0 -1069 7 -1077 6 -6 413 -244 905 -528 492 -285 901 -525 908 -533 10
-13 16 -14 32 -5 22 15 710 412 790 458 l55 31 5 213 5 214 131 76 c72 42 139
82 148 90 14 12 16 44 16 270 l0 256 348 201 347 200 0 620 0 619 -95 56
c-283 168 -1710 989 -1717 988 -4 0 -52 -26 -106 -58z m1003 -484 c678 -393
885 -517 885 -532 0 -21 -2 -23 -470 -292 -181 -105 -550 -318 -820 -473 -269
-156 -494 -283 -500 -283 -5 0 -59 29 -120 65 -60 36 -261 152 -445 258 -184
107 -483 280 -665 385 -181 105 -385 222 -452 261 -67 38 -122 71 -123 74 0 3
76 48 168 102 1677 967 1642 947 1652 947 3 0 403 -231 890 -512z m890 -1154
l0 -568 -345 -198 c-190 -110 -346 -200 -347 -200 -1 -1 -4 -121 -7 -265 l-6
-264 -135 -78 c-74 -43 -141 -83 -147 -90 -10 -8 -13 -65 -13 -218 l0 -207
-38 -21 c-20 -11 -199 -114 -396 -228 -198 -115 -366 -210 -373 -213 -11 -4
-13 179 -11 1033 l3 1038 640 369 c352 203 759 438 905 523 146 84 266 154
268 154 1 0 2 -255 2 -567z"/>
<path d="M3875 2384 c-165 -95 -308 -179 -318 -186 -17 -12 -18 -33 -18 -268
l1 -255 -151 -84 c-130 -74 -150 -88 -145 -105 3 -12 6 -91 6 -176 l0 -155
144 -83 c79 -45 147 -82 152 -82 4 0 72 36 151 81 l143 81 0 45 c0 37 3 44 16
39 8 -3 85 -47 171 -96 l156 -91 176 102 c97 56 247 142 334 192 l157 90 0
367 0 368 -77 45 c-155 90 -588 340 -593 342 -3 1 -140 -76 -305 -171z m412
80 c54 -31 181 -105 283 -164 102 -59 193 -111 204 -117 20 -11 51 9 -372
-236 l-234 -134 -256 148 c-340 196 -342 197 -342 207 0 10 589 352 607 352 7
0 56 -25 110 -56z m533 -664 l0 -349 -42 -25 c-24 -13 -157 -90 -296 -171
-140 -80 -260 -149 -268 -152 -12 -4 -14 49 -14 344 l0 349 133 76 c72 42 211
122 307 177 96 56 176 101 178 101 1 0 2 -157 2 -350z m-1150 -236 c72 -42
130 -78 128 -79 -2 -2 -61 -37 -133 -79 l-129 -75 -31 18 c-16 10 -74 44 -127
75 -54 32 -98 61 -98 66 0 8 237 150 252 150 3 0 65 -34 138 -76z m138 -255
l-3 -142 -120 -68 c-66 -38 -122 -69 -125 -69 -8 0 -5 268 3 277 11 11 230
141 240 142 4 1 6 -63 5 -140z"/>
</g>
</svg>
